<?xml version="1.0" encoding="UTF-8" standalone="no"?>
<!DOCTYPE svg PUBLIC "-//W3C//DTD SVG 1.1//EN"
 "http://www.w3.org/Graphics/SVG/1.1/DTD/svg11.dtd">
<!-- Generated by graphviz version 2.50.0 (20211204.2007)
 -->
<!-- Pages: 1 -->
<svg width="1760pt" height="476pt"
 viewBox="0.00 0.00 1759.78 476.00" xmlns="http://www.w3.org/2000/svg" xmlns:xlink="http://www.w3.org/1999/xlink">
<g id="graph0" class="graph" transform="scale(1 1) rotate(0) translate(4 472)">
<polygon fill="white" stroke="transparent" points="-4,4 -4,-472 1755.78,-472 1755.78,4 -4,4"/>
<!-- [root] aws_eip.eip -->
<g id="node1" class="node">
<title>[root] aws_eip.eip</title>
<polygon fill="none" stroke="black" points="604,-180 521,-180 521,-144 604,-144 604,-180"/>
<text text-anchor="middle" x="562.5" y="-158.3" font-family="Times New Roman,serif" font-size="14.00">aws_eip.eip</text>
</g>
<!-- [root] aws_eip_association.inst_eip -->
<g id="node2" class="node">
<title>[root] aws_eip_association.inst_eip</title>
<polygon fill="none" stroke="black" points="586,-108 407,-108 407,-72 586,-72 586,-108"/>
<text text-anchor="middle" x="496.5" y="-86.3" font-family="Times New Roman,serif" font-size="14.00">aws_eip_association.inst_eip</text>
</g>
<!-- [root] aws_eip.eip&#45;&gt;[root] aws_eip_association.inst_eip -->
<g id="edge1" class="edge">
<title>[root] aws_eip.eip&#45;&gt;[root] aws_eip_association.inst_eip</title>
<path fill="none" stroke="black" d="M546.19,-143.7C538.19,-135.22 528.43,-124.86 519.68,-115.58"/>
<polygon fill="black" stroke="black" points="522.03,-112.98 512.63,-108.1 516.94,-117.78 522.03,-112.98"/>
</g>
<!-- [root] provider[&quot;registry.terraform.io/hashicorp/aws&quot;] -->
<g id="node14" class="node">
<title>[root] provider[&quot;registry.terraform.io/hashicorp/aws&quot;]</title>
<polygon fill="none" stroke="black" points="326.5,-36 69.27,-18 326.5,0 583.73,-18 326.5,-36"/>
<text text-anchor="middle" x="326.5" y="-14.3" font-family="Times New Roman,serif" font-size="14.00">provider[&quot;registry.terraform.io/hashicorp/aws&quot;]</text>
</g>
<!-- [root] aws_eip_association.inst_eip&#45;&gt;[root] provider[&quot;registry.terraform.io/hashicorp/aws&quot;] -->
<g id="edge2" class="edge">
<title>[root] aws_eip_association.inst_eip&#45;&gt;[root] provider[&quot;registry.terraform.io/hashicorp/aws&quot;]</title>
<path fill="none" stroke="black" d="M454.91,-71.88C429.64,-61.47 397.36,-48.18 371.49,-37.52"/>
<polygon fill="black" stroke="black" points="372.49,-34.15 361.91,-33.58 369.83,-40.63 372.49,-34.15"/>
</g>
<!-- [root] aws_instance.linux -->
<g id="node3" class="node">
<title>[root] aws_instance.linux</title>
<polygon fill="none" stroke="black" points="503,-180 382,-180 382,-144 503,-144 503,-180"/>
<text text-anchor="middle" x="442.5" y="-158.3" font-family="Times New Roman,serif" font-size="14.00">aws_instance.linux</text>
</g>
<!-- [root] aws_instance.linux&#45;&gt;[root] aws_eip_association.inst_eip -->
<g id="edge3" class="edge">
<title>[root] aws_instance.linux&#45;&gt;[root] aws_eip_association.inst_eip</title>
<path fill="none" stroke="black" d="M455.85,-143.7C462.26,-135.39 470.06,-125.28 477.11,-116.14"/>
<polygon fill="black" stroke="black" points="479.97,-118.16 483.31,-108.1 474.43,-113.88 479.97,-118.16"/>
</g>
<!-- [root] aws_internet_gateway.gw -->
<g id="node4" class="node">
<title>[root] aws_internet_gateway.gw</title>
<polygon fill="none" stroke="black" points="159,-252 0,-252 0,-216 159,-216 159,-252"/>
<text text-anchor="middle" x="79.5" y="-230.3" font-family="Times New Roman,serif" font-size="14.00">aws_internet_gateway.gw</text>
</g>
<!-- [root] aws_route_table.public -->
<g id="node6" class="node">
<title>[root] aws_route_table.public</title>
<polygon fill="none" stroke="black" points="166.5,-180 20.5,-180 20.5,-144 166.5,-144 166.5,-180"/>
<text text-anchor="middle" x="93.5" y="-158.3" font-family="Times New Roman,serif" font-size="14.00">aws_route_table.public</text>
</g>
<!-- [root] aws_internet_gateway.gw&#45;&gt;[root] aws_route_table.public -->
<g id="edge4" class="edge">
<title>[root] aws_internet_gateway.gw&#45;&gt;[root] aws_route_table.public</title>
<path fill="none" stroke="black" d="M82.96,-215.7C84.5,-207.98 86.36,-198.71 88.08,-190.11"/>
<polygon fill="black" stroke="black" points="91.55,-190.6 90.08,-180.1 84.69,-189.22 91.55,-190.6"/>
</g>
<!-- [root] aws_key_pair.key_pair -->
<g id="node5" class="node">
<title>[root] aws_key_pair.key_pair</title>
<polygon fill="none" stroke="black" points="849.5,-252 703.5,-252 703.5,-216 849.5,-216 849.5,-252"/>
<text text-anchor="middle" x="776.5" y="-230.3" font-family="Times New Roman,serif" font-size="14.00">aws_key_pair.key_pair</text>
</g>
<!-- [root] aws_key_pair.key_pair&#45;&gt;[root] aws_instance.linux -->
<g id="edge5" class="edge">
<title>[root] aws_key_pair.key_pair&#45;&gt;[root] aws_instance.linux</title>
<path fill="none" stroke="black" d="M703.5,-219.16C652.79,-209.36 583.42,-195.57 513.1,-180.09"/>
<polygon fill="black" stroke="black" points="513.69,-176.63 503.17,-177.89 512.18,-183.47 513.69,-176.63"/>
</g>
<!-- [root] local_file.ssh_key -->
<g id="node13" class="node">
<title>[root] local_file.ssh_key</title>
<polygon fill="none" stroke="black" points="1217.5,-180 1101.5,-180 1101.5,-144 1217.5,-144 1217.5,-180"/>
<text text-anchor="middle" x="1159.5" y="-158.3" font-family="Times New Roman,serif" font-size="14.00">local_file.ssh_key</text>
</g>
<!-- [root] aws_key_pair.key_pair&#45;&gt;[root] local_file.ssh_key -->
<g id="edge6" class="edge">
<title>[root] aws_key_pair.key_pair&#45;&gt;[root] local_file.ssh_key</title>
<path fill="none" stroke="black" d="M849.8,-217.69C852.73,-217.11 855.64,-216.55 858.5,-216 938.35,-200.7 1030.44,-184.73 1091.52,-174.37"/>
<polygon fill="black" stroke="black" points="1092.14,-177.81 1101.42,-172.69 1090.98,-170.91 1092.14,-177.81"/>
</g>
<!-- [root] aws_route_table_association.public -->
<g id="node7" class="node">
<title>[root] aws_route_table_association.public</title>
<polygon fill="none" stroke="black" points="246.5,-108 30.5,-108 30.5,-72 246.5,-72 246.5,-108"/>
<text text-anchor="middle" x="138.5" y="-86.3" font-family="Times New Roman,serif" font-size="14.00">aws_route_table_association.public</text>
</g>
<!-- [root] aws_route_table.public&#45;&gt;[root] aws_route_table_association.public -->
<g id="edge7" class="edge">
<title>[root] aws_route_table.public&#45;&gt;[root] aws_route_table_association.public</title>
<path fill="none" stroke="black" d="M104.62,-143.7C109.86,-135.56 116.2,-125.69 121.98,-116.7"/>
<polygon fill="black" stroke="black" points="125.04,-118.41 127.5,-108.1 119.15,-114.62 125.04,-118.41"/>
</g>
<!-- [root] aws_route_table_association.public&#45;&gt;[root] provider[&quot;registry.terraform.io/hashicorp/aws&quot;] -->
<g id="edge8" class="edge">
<title>[root] aws_route_table_association.public&#45;&gt;[root] provider[&quot;registry.terraform.io/hashicorp/aws&quot;]</title>
<path fill="none" stroke="black" d="M184.49,-71.88C213.01,-61.26 249.59,-47.64 278.48,-36.88"/>
<polygon fill="black" stroke="black" points="279.81,-40.12 287.96,-33.35 277.36,-33.56 279.81,-40.12"/>
</g>
<!-- [root] aws_security_group.aws_sg -->
<g id="node8" class="node">
<title>[root] aws_security_group.aws_sg</title>
<polygon fill="none" stroke="black" points="530.5,-252 354.5,-252 354.5,-216 530.5,-216 530.5,-252"/>
<text text-anchor="middle" x="442.5" y="-230.3" font-family="Times New Roman,serif" font-size="14.00">aws_security_group.aws_sg</text>
</g>
<!-- [root] aws_security_group.aws_sg&#45;&gt;[root] aws_instance.linux -->
<g id="edge9" class="edge">
<title>[root] aws_security_group.aws_sg&#45;&gt;[root] aws_instance.linux</title>
<path fill="none" stroke="black" d="M442.5,-215.7C442.5,-207.98 442.5,-198.71 442.5,-190.11"/>
<polygon fill="black" stroke="black" points="446,-190.1 442.5,-180.1 439,-190.1 446,-190.1"/>
</g>
<!-- [root] aws_subnet.private -->
<g id="node9" class="node">
<title>[root] aws_subnet.private</title>
<polygon fill="none" stroke="black" points="388.5,-108 264.5,-108 264.5,-72 388.5,-72 388.5,-108"/>
<text text-anchor="middle" x="326.5" y="-86.3" font-family="Times New Roman,serif" font-size="14.00">aws_subnet.private</text>
</g>
<!-- [root] aws_subnet.private&#45;&gt;[root] provider[&quot;registry.terraform.io/hashicorp/aws&quot;] -->
<g id="edge10" class="edge">
<title>[root] aws_subnet.private&#45;&gt;[root] provider[&quot;registry.terraform.io/hashicorp/aws&quot;]</title>
<path fill="none" stroke="black" d="M326.5,-71.7C326.5,-63.98 326.5,-54.71 326.5,-46.11"/>
<polygon fill="black" stroke="black" points="330,-46.1 326.5,-36.1 323,-46.1 330,-46.1"/>
</g>
<!-- [root] aws_subnet.public -->
<g id="node10" class="node">
<title>[root] aws_subnet.public</title>
<polygon fill="none" stroke="black" points="298,-252 177,-252 177,-216 298,-216 298,-252"/>
<text text-anchor="middle" x="237.5" y="-230.3" font-family="Times New Roman,serif" font-size="14.00">aws_subnet.public</text>
</g>
<!-- [root] aws_subnet.public&#45;&gt;[root] aws_instance.linux -->
<g id="edge11" class="edge">
<title>[root] aws_subnet.public&#45;&gt;[root] aws_instance.linux</title>
<path fill="none" stroke="black" d="M287.39,-215.97C316.15,-206.14 352.51,-193.73 382.79,-183.39"/>
<polygon fill="black" stroke="black" points="384.06,-186.65 392.39,-180.11 381.8,-180.03 384.06,-186.65"/>
</g>
<!-- [root] aws_subnet.public&#45;&gt;[root] aws_route_table_association.public -->
<g id="edge12" class="edge">
<title>[root] aws_subnet.public&#45;&gt;[root] aws_route_table_association.public</title>
<path fill="none" stroke="black" d="M225.62,-215.93C213.14,-198.02 192.95,-169.02 175.5,-144 169.24,-135.03 162.38,-125.2 156.29,-116.47"/>
<polygon fill="black" stroke="black" points="159.1,-114.38 150.5,-108.18 153.36,-118.39 159.1,-114.38"/>
</g>
<!-- [root] aws_vpc.vpc -->
<g id="node11" class="node">
<title>[root] aws_vpc.vpc</title>
<polygon fill="none" stroke="black" points="372.5,-324 280.5,-324 280.5,-288 372.5,-288 372.5,-324"/>
<text text-anchor="middle" x="326.5" y="-302.3" font-family="Times New Roman,serif" font-size="14.00">aws_vpc.vpc</text>
</g>
<!-- [root] aws_vpc.vpc&#45;&gt;[root] aws_internet_gateway.gw -->
<g id="edge13" class="edge">
<title>[root] aws_vpc.vpc&#45;&gt;[root] aws_internet_gateway.gw</title>
<path fill="none" stroke="black" d="M280.33,-291.92C243.62,-281.51 191.65,-266.78 149.78,-254.92"/>
<polygon fill="black" stroke="black" points="150.49,-251.48 139.92,-252.12 148.58,-258.22 150.49,-251.48"/>
</g>
<!-- [root] aws_vpc.vpc&#45;&gt;[root] aws_security_group.aws_sg -->
<g id="edge14" class="edge">
<title>[root] aws_vpc.vpc&#45;&gt;[root] aws_security_group.aws_sg</title>
<path fill="none" stroke="black" d="M354.88,-287.88C370.04,-278.72 388.91,-267.34 405.24,-257.48"/>
<polygon fill="black" stroke="black" points="407.26,-260.35 414.01,-252.19 403.64,-254.36 407.26,-260.35"/>
</g>
<!-- [root] aws_vpc.vpc&#45;&gt;[root] aws_subnet.private -->
<g id="edge15" class="edge">
<title>[root] aws_vpc.vpc&#45;&gt;[root] aws_subnet.private</title>
<path fill="none" stroke="black" d="M326.5,-287.85C326.5,-250.83 326.5,-163.18 326.5,-118.39"/>
<polygon fill="black" stroke="black" points="330,-118.23 326.5,-108.23 323,-118.23 330,-118.23"/>
</g>
<!-- [root] aws_vpc.vpc&#45;&gt;[root] aws_subnet.public -->
<g id="edge16" class="edge">
<title>[root] aws_vpc.vpc&#45;&gt;[root] aws_subnet.public</title>
<path fill="none" stroke="black" d="M304.5,-287.7C293.29,-278.88 279.5,-268.03 267.35,-258.47"/>
<polygon fill="black" stroke="black" points="269.27,-255.54 259.25,-252.1 264.94,-261.04 269.27,-255.54"/>
</g>
<!-- [root] data.aws_ami.amzn2&#45;hvm -->
<g id="node12" class="node">
<title>[root] data.aws_ami.amzn2&#45;hvm</title>
<polygon fill="none" stroke="black" points="748,-324 587,-324 587,-288 748,-288 748,-324"/>
<text text-anchor="middle" x="667.5" y="-302.3" font-family="Times New Roman,serif" font-size="14.00">data.aws_ami.amzn2&#45;hvm</text>
</g>
<!-- [root] data.aws_ami.amzn2&#45;hvm&#45;&gt;[root] aws_instance.linux -->
<g id="edge17" class="edge">
<title>[root] data.aws_ami.amzn2&#45;hvm&#45;&gt;[root] aws_instance.linux</title>
<path fill="none" stroke="black" d="M644.42,-287.82C619.17,-269.31 577.25,-239.35 539.5,-216 522.01,-205.18 502.17,-194.14 485,-184.95"/>
<polygon fill="black" stroke="black" points="486.25,-181.65 475.78,-180.05 482.97,-187.83 486.25,-181.65"/>
</g>
<!-- [root] provider[&quot;registry.terraform.io/hashicorp/local&quot;] -->
<g id="node15" class="node">
<title>[root] provider[&quot;registry.terraform.io/hashicorp/local&quot;]</title>
<polygon fill="none" stroke="black" points="1159.5,-108 898.42,-90 1159.5,-72 1420.58,-90 1159.5,-108"/>
<text text-anchor="middle" x="1159.5" y="-86.3" font-family="Times New Roman,serif" font-size="14.00">provider[&quot;registry.terraform.io/hashicorp/local&quot;]</text>
</g>
<!-- [root] local_file.ssh_key&#45;&gt;[root] provider[&quot;registry.terraform.io/hashicorp/local&quot;] -->
<g id="edge18" class="edge">
<title>[root] local_file.ssh_key&#45;&gt;[root] provider[&quot;registry.terraform.io/hashicorp/local&quot;]</title>
<path fill="none" stroke="black" d="M1159.5,-143.7C1159.5,-135.98 1159.5,-126.71 1159.5,-118.11"/>
<polygon fill="black" stroke="black" points="1163,-118.1 1159.5,-108.1 1156,-118.1 1163,-118.1"/>
</g>
<!-- [root] provider[&quot;registry.terraform.io/hashicorp/tls&quot;] -->
<g id="node16" class="node">
<title>[root] provider[&quot;registry.terraform.io/hashicorp/tls&quot;]</title>
<polygon fill="none" stroke="black" points="1116.5,-252 867.32,-234 1116.5,-216 1365.68,-234 1116.5,-252"/>
<text text-anchor="middle" x="1116.5" y="-230.3" font-family="Times New Roman,serif" font-size="14.00">provider[&quot;registry.terraform.io/hashicorp/tls&quot;]</text>
</g>
<!-- [root] tls_private_key.key_pair -->
<g id="node17" class="node">
<title>[root] tls_private_key.key_pair</title>
<polygon fill="none" stroke="black" points="1113,-324 960,-324 960,-288 1113,-288 1113,-324"/>
<text text-anchor="middle" x="1036.5" y="-302.3" font-family="Times New Roman,serif" font-size="14.00">tls_private_key.key_pair</text>
</g>
<!-- [root] tls_private_key.key_pair&#45;&gt;[root] aws_key_pair.key_pair -->
<g id="edge28" class="edge">
<title>[root] tls_private_key.key_pair&#45;&gt;[root] aws_key_pair.key_pair</title>
<path fill="none" stroke="black" d="M973.23,-287.97C935.95,-277.93 888.64,-265.19 849.75,-254.72"/>
<polygon fill="black" stroke="black" points="850.62,-251.33 840.05,-252.11 848.8,-258.09 850.62,-251.33"/>
</g>
<!-- [root] tls_private_key.key_pair&#45;&gt;[root] provider[&quot;registry.terraform.io/hashicorp/tls&quot;] -->
<g id="edge29" class="edge">
<title>[root] tls_private_key.key_pair&#45;&gt;[root] provider[&quot;registry.terraform.io/hashicorp/tls&quot;]</title>
<path fill="none" stroke="black" d="M1056.28,-287.7C1066.63,-278.64 1079.43,-267.44 1090.56,-257.69"/>
<polygon fill="black" stroke="black" points="1093.1,-260.13 1098.32,-250.91 1088.49,-254.86 1093.1,-260.13"/>
</g>
<!-- [root] provider[&quot;registry.terraform.io/hashicorp/aws&quot;] (close) -->
<g id="node18" class="node">
<title>[root] provider[&quot;registry.terraform.io/hashicorp/aws&quot;] (close)</title>
<ellipse fill="none" stroke="black" cx="558.5" cy="-378" rx="232.86" ry="18"/>
<text text-anchor="middle" x="558.5" y="-374.3" font-family="Times New Roman,serif" font-size="14.00">[root] provider[&quot;registry.terraform.io/hashicorp/aws&quot;] (close)</text>
</g>
<!-- [root] provider[&quot;registry.terraform.io/hashicorp/aws&quot;] (close)&#45;&gt;[root] aws_eip.eip -->
<g id="edge19" class="edge">
<title>[root] provider[&quot;registry.terraform.io/hashicorp/aws&quot;] (close)&#45;&gt;[root] aws_eip.eip</title>
<path fill="none" stroke="black" d="M558.82,-359.85C559.51,-322.83 561.15,-235.18 561.99,-190.39"/>
<polygon fill="black" stroke="black" points="565.49,-190.3 562.18,-180.23 558.49,-190.17 565.49,-190.3"/>
</g>
<!-- [root] provider[&quot;registry.terraform.io/hashicorp/aws&quot;] (close)&#45;&gt;[root] aws_key_pair.key_pair -->
<g id="edge20" class="edge">
<title>[root] provider[&quot;registry.terraform.io/hashicorp/aws&quot;] (close)&#45;&gt;[root] aws_key_pair.key_pair</title>
<path fill="none" stroke="black" d="M653.18,-361.52C696.94,-352.47 742.53,-339.74 757.5,-324 773.03,-307.68 777.15,-281.92 777.76,-262.31"/>
<polygon fill="black" stroke="black" points="781.26,-262.16 777.78,-252.15 774.26,-262.14 781.26,-262.16"/>
</g>
<!-- [root] provider[&quot;registry.terraform.io/hashicorp/aws&quot;] (close)&#45;&gt;[root] aws_vpc.vpc -->
<g id="edge21" class="edge">
<title>[root] provider[&quot;registry.terraform.io/hashicorp/aws&quot;] (close)&#45;&gt;[root] aws_vpc.vpc</title>
<path fill="none" stroke="black" d="M503.81,-360.5C467.17,-349.44 419.06,-334.93 382.21,-323.81"/>
<polygon fill="black" stroke="black" points="383.2,-320.45 372.61,-320.91 381.17,-327.15 383.2,-320.45"/>
</g>
<!-- [root] provider[&quot;registry.terraform.io/hashicorp/aws&quot;] (close)&#45;&gt;[root] data.aws_ami.amzn2&#45;hvm -->
<g id="edge22" class="edge">
<title>[root] provider[&quot;registry.terraform.io/hashicorp/aws&quot;] (close)&#45;&gt;[root] data.aws_ami.amzn2&#45;hvm</title>
<path fill="none" stroke="black" d="M584.89,-360.05C599.11,-350.92 616.84,-339.53 632.23,-329.65"/>
<polygon fill="black" stroke="black" points="634.46,-332.38 640.98,-324.03 630.67,-326.49 634.46,-332.38"/>
</g>
<!-- [root] provider[&quot;registry.terraform.io/hashicorp/local&quot;] (close) -->
<g id="node19" class="node">
<title>[root] provider[&quot;registry.terraform.io/hashicorp/local&quot;] (close)</title>
<ellipse fill="none" stroke="black" cx="1516.5" cy="-378" rx="235.06" ry="18"/>
<text text-anchor="middle" x="1516.5" y="-374.3" font-family="Times New Roman,serif" font-size="14.00">[root] provider[&quot;registry.terraform.io/hashicorp/local&quot;] (close)</text>
</g>
<!-- [root] provider[&quot;registry.terraform.io/hashicorp/local&quot;] (close)&#45;&gt;[root] local_file.ssh_key -->
<g id="edge23" class="edge">
<title>[root] provider[&quot;registry.terraform.io/hashicorp/local&quot;] (close)&#45;&gt;[root] local_file.ssh_key</title>
<path fill="none" stroke="black" d="M1506.43,-359.84C1486,-326.61 1436.33,-253.47 1374.5,-216 1329.97,-189.01 1272.37,-175.74 1228,-169.24"/>
<polygon fill="black" stroke="black" points="1228.27,-165.74 1217.89,-167.83 1227.31,-172.67 1228.27,-165.74"/>
</g>
<!-- [root] provider[&quot;registry.terraform.io/hashicorp/tls&quot;] (close) -->
<g id="node20" class="node">
<title>[root] provider[&quot;registry.terraform.io/hashicorp/tls&quot;] (close)</title>
<ellipse fill="none" stroke="black" cx="1036.5" cy="-378" rx="226.66" ry="18"/>
<text text-anchor="middle" x="1036.5" y="-374.3" font-family="Times New Roman,serif" font-size="14.00">[root] provider[&quot;registry.terraform.io/hashicorp/tls&quot;] (close)</text>
</g>
<!-- [root] provider[&quot;registry.terraform.io/hashicorp/tls&quot;] (close)&#45;&gt;[root] tls_private_key.key_pair -->
<g id="edge24" class="edge">
<title>[root] provider[&quot;registry.terraform.io/hashicorp/tls&quot;] (close)&#45;&gt;[root] tls_private_key.key_pair</title>
<path fill="none" stroke="black" d="M1036.5,-359.7C1036.5,-351.98 1036.5,-342.71 1036.5,-334.11"/>
<polygon fill="black" stroke="black" points="1040,-334.1 1036.5,-324.1 1033,-334.1 1040,-334.1"/>
</g>
<!-- [root] root -->
<g id="node21" class="node">
<title>[root] root</title>
<ellipse fill="none" stroke="black" cx="1036.5" cy="-450" rx="49.29" ry="18"/>
<text text-anchor="middle" x="1036.5" y="-446.3" font-family="Times New Roman,serif" font-size="14.00">[root] root</text>
</g>
<!-- [root] root&#45;&gt;[root] provider[&quot;registry.terraform.io/hashicorp/aws&quot;] (close) -->
<g id="edge25" class="edge">
<title>[root] root&#45;&gt;[root] provider[&quot;registry.terraform.io/hashicorp/aws&quot;] (close)</title>
<path fill="none" stroke="black" d="M991.53,-442.41C919.11,-431.81 774.43,-410.62 672.28,-395.66"/>
<polygon fill="black" stroke="black" points="672.63,-392.18 662.22,-394.19 671.61,-399.1 672.63,-392.18"/>
</g>
<!-- [root] root&#45;&gt;[root] provider[&quot;registry.terraform.io/hashicorp/local&quot;] (close) -->
<g id="edge26" class="edge">
<title>[root] root&#45;&gt;[root] provider[&quot;registry.terraform.io/hashicorp/local&quot;] (close)</title>
<path fill="none" stroke="black" d="M1081.66,-442.41C1154.38,-431.81 1299.67,-410.62 1402.24,-395.66"/>
<polygon fill="black" stroke="black" points="1402.95,-399.1 1412.34,-394.19 1401.94,-392.17 1402.95,-399.1"/>
</g>
<!-- [root] root&#45;&gt;[root] provider[&quot;registry.terraform.io/hashicorp/tls&quot;] (close) -->
<g id="edge27" class="edge">
<title>[root] root&#45;&gt;[root] provider[&quot;registry.terraform.io/hashicorp/tls&quot;] (close)</title>
<path fill="none" stroke="black" d="M1036.5,-431.7C1036.5,-423.98 1036.5,-414.71 1036.5,-406.11"/>
<polygon fill="black" stroke="black" points="1040,-406.1 1036.5,-396.1 1033,-406.1 1040,-406.1"/>
</g>
</g>
</svg>
