<?xml version="1.0" encoding="UTF-8" standalone="no"?>
<!DOCTYPE svg PUBLIC "-//W3C//DTD SVG 1.1//EN"
 "http://www.w3.org/Graphics/SVG/1.1/DTD/svg11.dtd">
<!-- Generated by graphviz version 2.50.0 (20211204.2007)
 -->
<!-- Pages: 1 -->
<svg width="2089pt" height="476pt"
 viewBox="0.00 0.00 2088.83 476.00" xmlns="http://www.w3.org/2000/svg" xmlns:xlink="http://www.w3.org/1999/xlink">
<g id="graph0" class="graph" transform="scale(1 1) rotate(0) translate(4 472)">
<polygon fill="white" stroke="transparent" points="-4,4 -4,-472 2084.83,-472 2084.83,4 -4,4"/>
<!-- [root] aws_eip.eip (expand) -->
<g id="node1" class="node">
<title>[root] aws_eip.eip (expand)</title>
<polygon fill="none" stroke="black" points="1311.5,-108 1228.5,-108 1228.5,-72 1311.5,-72 1311.5,-108"/>
<text text-anchor="middle" x="1270" y="-86.3" font-family="Times New Roman,serif" font-size="14.00">aws_eip.eip</text>
</g>
<!-- [root] provider[&quot;registry.terraform.io/hashicorp/aws&quot;] -->
<g id="node14" class="node">
<title>[root] provider[&quot;registry.terraform.io/hashicorp/aws&quot;]</title>
<polygon fill="none" stroke="black" points="1200,-36 942.77,-18 1200,0 1457.23,-18 1200,-36"/>
<text text-anchor="middle" x="1200" y="-14.3" font-family="Times New Roman,serif" font-size="14.00">provider[&quot;registry.terraform.io/hashicorp/aws&quot;]</text>
</g>
<!-- [root] aws_eip.eip (expand)&#45;&gt;[root] provider[&quot;registry.terraform.io/hashicorp/aws&quot;] -->
<g id="edge1" class="edge">
<title>[root] aws_eip.eip (expand)&#45;&gt;[root] provider[&quot;registry.terraform.io/hashicorp/aws&quot;]</title>
<path fill="none" stroke="black" d="M1252.7,-71.7C1243.88,-62.88 1233.03,-52.03 1223.47,-42.47"/>
<polygon fill="black" stroke="black" points="1225.69,-39.74 1216.14,-35.14 1220.74,-44.69 1225.69,-39.74"/>
</g>
<!-- [root] aws_eip_association.inst_eip (expand) -->
<g id="node2" class="node">
<title>[root] aws_eip_association.inst_eip (expand)</title>
<polygon fill="none" stroke="black" points="967.5,-324 788.5,-324 788.5,-288 967.5,-288 967.5,-324"/>
<text text-anchor="middle" x="878" y="-302.3" font-family="Times New Roman,serif" font-size="14.00">aws_eip_association.inst_eip</text>
</g>
<!-- [root] aws_eip_association.inst_eip (expand)&#45;&gt;[root] aws_eip.eip (expand) -->
<g id="edge2" class="edge">
<title>[root] aws_eip_association.inst_eip (expand)&#45;&gt;[root] aws_eip.eip (expand)</title>
<path fill="none" stroke="black" d="M967.51,-291.12C1043.1,-275.41 1150.32,-243.26 1223,-180 1241.97,-163.49 1254.46,-137.42 1261.77,-117.75"/>
<polygon fill="black" stroke="black" points="1265.13,-118.73 1265.12,-108.13 1258.52,-116.42 1265.13,-118.73"/>
</g>
<!-- [root] aws_instance.linux (expand) -->
<g id="node3" class="node">
<title>[root] aws_instance.linux (expand)</title>
<polygon fill="none" stroke="black" points="938.5,-252 817.5,-252 817.5,-216 938.5,-216 938.5,-252"/>
<text text-anchor="middle" x="878" y="-230.3" font-family="Times New Roman,serif" font-size="14.00">aws_instance.linux</text>
</g>
<!-- [root] aws_eip_association.inst_eip (expand)&#45;&gt;[root] aws_instance.linux (expand) -->
<g id="edge3" class="edge">
<title>[root] aws_eip_association.inst_eip (expand)&#45;&gt;[root] aws_instance.linux (expand)</title>
<path fill="none" stroke="black" d="M878,-287.7C878,-279.98 878,-270.71 878,-262.11"/>
<polygon fill="black" stroke="black" points="881.5,-262.1 878,-252.1 874.5,-262.1 881.5,-262.1"/>
</g>
<!-- [root] aws_key_pair.key_pair (expand) -->
<g id="node5" class="node">
<title>[root] aws_key_pair.key_pair (expand)</title>
<polygon fill="none" stroke="black" points="1436,-180 1290,-180 1290,-144 1436,-144 1436,-180"/>
<text text-anchor="middle" x="1363" y="-158.3" font-family="Times New Roman,serif" font-size="14.00">aws_key_pair.key_pair</text>
</g>
<!-- [root] aws_instance.linux (expand)&#45;&gt;[root] aws_key_pair.key_pair (expand) -->
<g id="edge4" class="edge">
<title>[root] aws_instance.linux (expand)&#45;&gt;[root] aws_key_pair.key_pair (expand)</title>
<path fill="none" stroke="black" d="M938.93,-224.21C1025.06,-211.77 1182.68,-189.03 1279.6,-175.04"/>
<polygon fill="black" stroke="black" points="1280.26,-178.48 1289.66,-173.59 1279.26,-171.55 1280.26,-178.48"/>
</g>
<!-- [root] aws_security_group.aws_sg (expand) -->
<g id="node8" class="node">
<title>[root] aws_security_group.aws_sg (expand)</title>
<polygon fill="none" stroke="black" points="544,-180 368,-180 368,-144 544,-144 544,-180"/>
<text text-anchor="middle" x="456" y="-158.3" font-family="Times New Roman,serif" font-size="14.00">aws_security_group.aws_sg</text>
</g>
<!-- [root] aws_instance.linux (expand)&#45;&gt;[root] aws_security_group.aws_sg (expand) -->
<g id="edge5" class="edge">
<title>[root] aws_instance.linux (expand)&#45;&gt;[root] aws_security_group.aws_sg (expand)</title>
<path fill="none" stroke="black" d="M817.47,-223.35C754.34,-213.23 652.22,-196.73 554.11,-180.18"/>
<polygon fill="black" stroke="black" points="554.46,-176.69 544.02,-178.47 553.3,-183.59 554.46,-176.69"/>
</g>
<!-- [root] aws_subnet.public (expand) -->
<g id="node10" class="node">
<title>[root] aws_subnet.public (expand)</title>
<polygon fill="none" stroke="black" points="349.5,-180 228.5,-180 228.5,-144 349.5,-144 349.5,-180"/>
<text text-anchor="middle" x="289" y="-158.3" font-family="Times New Roman,serif" font-size="14.00">aws_subnet.public</text>
</g>
<!-- [root] aws_instance.linux (expand)&#45;&gt;[root] aws_subnet.public (expand) -->
<g id="edge6" class="edge">
<title>[root] aws_instance.linux (expand)&#45;&gt;[root] aws_subnet.public (expand)</title>
<path fill="none" stroke="black" d="M817.31,-229.5C721.89,-223.4 530.92,-208.8 359.56,-179.95"/>
<polygon fill="black" stroke="black" points="360.05,-176.48 349.6,-178.25 358.87,-183.38 360.05,-176.48"/>
</g>
<!-- [root] data.aws_ami.amzn2&#45;hvm (expand) -->
<g id="node12" class="node">
<title>[root] data.aws_ami.amzn2&#45;hvm (expand)</title>
<polygon fill="none" stroke="black" points="1210.5,-108 1049.5,-108 1049.5,-72 1210.5,-72 1210.5,-108"/>
<text text-anchor="middle" x="1130" y="-86.3" font-family="Times New Roman,serif" font-size="14.00">data.aws_ami.amzn2&#45;hvm</text>
</g>
<!-- [root] aws_instance.linux (expand)&#45;&gt;[root] data.aws_ami.amzn2&#45;hvm (expand) -->
<g id="edge7" class="edge">
<title>[root] aws_instance.linux (expand)&#45;&gt;[root] data.aws_ami.amzn2&#45;hvm (expand)</title>
<path fill="none" stroke="black" d="M938.83,-232.17C1023.83,-229.58 1171.5,-219.36 1205,-180 1215.37,-167.81 1212.36,-158.21 1205,-144 1198.63,-131.7 1187.95,-121.65 1176.62,-113.73"/>
<polygon fill="black" stroke="black" points="1178.18,-110.58 1167.88,-108.09 1174.39,-116.46 1178.18,-110.58"/>
</g>
<!-- [root] var.data_size -->
<g id="node18" class="node">
<title>[root] var.data_size</title>
<polygon fill="none" stroke="black" points="1079.5,-180 996.5,-180 996.5,-144 1085.5,-144 1085.5,-174 1079.5,-180"/>
<polyline fill="none" stroke="black" points="1079.5,-180 1079.5,-174 "/>
<polyline fill="none" stroke="black" points="1085.5,-174 1079.5,-174 "/>
<text text-anchor="middle" x="1041" y="-158.3" font-family="Times New Roman,serif" font-size="14.00">var.data_size</text>
</g>
<!-- [root] aws_instance.linux (expand)&#45;&gt;[root] var.data_size -->
<g id="edge8" class="edge">
<title>[root] aws_instance.linux (expand)&#45;&gt;[root] var.data_size</title>
<path fill="none" stroke="black" d="M917.87,-215.88C940.16,-206.31 968.12,-194.3 991.76,-184.15"/>
<polygon fill="black" stroke="black" points="993.45,-187.23 1001.26,-180.07 990.69,-180.8 993.45,-187.23"/>
</g>
<!-- [root] var.data_type -->
<g id="node19" class="node">
<title>[root] var.data_type</title>
<polygon fill="none" stroke="black" points="1190,-180 1104,-180 1104,-144 1196,-144 1196,-174 1190,-180"/>
<polyline fill="none" stroke="black" points="1190,-180 1190,-174 "/>
<polyline fill="none" stroke="black" points="1196,-174 1190,-174 "/>
<text text-anchor="middle" x="1150" y="-158.3" font-family="Times New Roman,serif" font-size="14.00">var.data_type</text>
</g>
<!-- [root] aws_instance.linux (expand)&#45;&gt;[root] var.data_type -->
<g id="edge9" class="edge">
<title>[root] aws_instance.linux (expand)&#45;&gt;[root] var.data_type</title>
<path fill="none" stroke="black" d="M938.75,-219.02C982.16,-208.81 1041.87,-194.3 1094,-180 1094.1,-179.97 1094.2,-179.94 1094.3,-179.92"/>
<polygon fill="black" stroke="black" points="1095.24,-183.29 1103.91,-177.21 1093.34,-176.55 1095.24,-183.29"/>
</g>
<!-- [root] var.inst_type -->
<g id="node20" class="node">
<title>[root] var.inst_type</title>
<polygon fill="none" stroke="black" points="645.5,-180 562.5,-180 562.5,-144 651.5,-144 651.5,-174 645.5,-180"/>
<polyline fill="none" stroke="black" points="645.5,-180 645.5,-174 "/>
<polyline fill="none" stroke="black" points="651.5,-174 645.5,-174 "/>
<text text-anchor="middle" x="607" y="-158.3" font-family="Times New Roman,serif" font-size="14.00">var.inst_type</text>
</g>
<!-- [root] aws_instance.linux (expand)&#45;&gt;[root] var.inst_type -->
<g id="edge10" class="edge">
<title>[root] aws_instance.linux (expand)&#45;&gt;[root] var.inst_type</title>
<path fill="none" stroke="black" d="M817.39,-219.32C776.02,-209.72 719.79,-196.17 661.48,-180.04"/>
<polygon fill="black" stroke="black" points="662.29,-176.64 651.72,-177.33 660.42,-183.38 662.29,-176.64"/>
</g>
<!-- [root] var.public_ip -->
<g id="node21" class="node">
<title>[root] var.public_ip</title>
<polygon fill="none" stroke="black" points="754,-180 670,-180 670,-144 760,-144 760,-174 754,-180"/>
<polyline fill="none" stroke="black" points="754,-180 754,-174 "/>
<polyline fill="none" stroke="black" points="760,-174 754,-174 "/>
<text text-anchor="middle" x="715" y="-158.3" font-family="Times New Roman,serif" font-size="14.00">var.public_ip</text>
</g>
<!-- [root] aws_instance.linux (expand)&#45;&gt;[root] var.public_ip -->
<g id="edge11" class="edge">
<title>[root] aws_instance.linux (expand)&#45;&gt;[root] var.public_ip</title>
<path fill="none" stroke="black" d="M838.13,-215.88C815.84,-206.31 787.88,-194.3 764.24,-184.15"/>
<polygon fill="black" stroke="black" points="765.31,-180.8 754.74,-180.07 762.55,-187.23 765.31,-180.8"/>
</g>
<!-- [root] var.root_size -->
<g id="node22" class="node">
<title>[root] var.root_size</title>
<polygon fill="none" stroke="black" points="861.5,-180 778.5,-180 778.5,-144 867.5,-144 867.5,-174 861.5,-180"/>
<polyline fill="none" stroke="black" points="861.5,-180 861.5,-174 "/>
<polyline fill="none" stroke="black" points="867.5,-174 861.5,-174 "/>
<text text-anchor="middle" x="823" y="-158.3" font-family="Times New Roman,serif" font-size="14.00">var.root_size</text>
</g>
<!-- [root] aws_instance.linux (expand)&#45;&gt;[root] var.root_size -->
<g id="edge12" class="edge">
<title>[root] aws_instance.linux (expand)&#45;&gt;[root] var.root_size</title>
<path fill="none" stroke="black" d="M864.4,-215.7C857.88,-207.39 849.93,-197.28 842.75,-188.14"/>
<polygon fill="black" stroke="black" points="845.37,-185.81 836.44,-180.1 839.87,-190.13 845.37,-185.81"/>
</g>
<!-- [root] var.root_type -->
<g id="node23" class="node">
<title>[root] var.root_type</title>
<polygon fill="none" stroke="black" points="972,-180 886,-180 886,-144 978,-144 978,-174 972,-180"/>
<polyline fill="none" stroke="black" points="972,-180 972,-174 "/>
<polyline fill="none" stroke="black" points="978,-174 972,-174 "/>
<text text-anchor="middle" x="932" y="-158.3" font-family="Times New Roman,serif" font-size="14.00">var.root_type</text>
</g>
<!-- [root] aws_instance.linux (expand)&#45;&gt;[root] var.root_type -->
<g id="edge13" class="edge">
<title>[root] aws_instance.linux (expand)&#45;&gt;[root] var.root_type</title>
<path fill="none" stroke="black" d="M891.35,-215.7C897.76,-207.39 905.56,-197.28 912.61,-188.14"/>
<polygon fill="black" stroke="black" points="915.47,-190.16 918.81,-180.1 909.93,-185.88 915.47,-190.16"/>
</g>
<!-- [root] aws_internet_gateway.gw (expand) -->
<g id="node4" class="node">
<title>[root] aws_internet_gateway.gw (expand)</title>
<polygon fill="none" stroke="black" points="210.5,-180 51.5,-180 51.5,-144 210.5,-144 210.5,-180"/>
<text text-anchor="middle" x="131" y="-158.3" font-family="Times New Roman,serif" font-size="14.00">aws_internet_gateway.gw</text>
</g>
<!-- [root] aws_vpc.vpc (expand) -->
<g id="node11" class="node">
<title>[root] aws_vpc.vpc (expand)</title>
<polygon fill="none" stroke="black" points="335,-108 243,-108 243,-72 335,-72 335,-108"/>
<text text-anchor="middle" x="289" y="-86.3" font-family="Times New Roman,serif" font-size="14.00">aws_vpc.vpc</text>
</g>
<!-- [root] aws_internet_gateway.gw (expand)&#45;&gt;[root] aws_vpc.vpc (expand) -->
<g id="edge14" class="edge">
<title>[root] aws_internet_gateway.gw (expand)&#45;&gt;[root] aws_vpc.vpc (expand)</title>
<path fill="none" stroke="black" d="M169.65,-143.88C191.25,-134.31 218.35,-122.3 241.27,-112.15"/>
<polygon fill="black" stroke="black" points="242.75,-115.32 250.47,-108.07 239.91,-108.92 242.75,-115.32"/>
</g>
<!-- [root] aws_key_pair.key_pair (expand)&#45;&gt;[root] provider[&quot;registry.terraform.io/hashicorp/aws&quot;] -->
<g id="edge15" class="edge">
<title>[root] aws_key_pair.key_pair (expand)&#45;&gt;[root] provider[&quot;registry.terraform.io/hashicorp/aws&quot;]</title>
<path fill="none" stroke="black" d="M1358.6,-143.78C1352.77,-124.1 1340.73,-92.03 1320,-72 1303.38,-55.94 1281.09,-44.29 1260.23,-36.07"/>
<polygon fill="black" stroke="black" points="1261.36,-32.76 1250.77,-32.53 1258.91,-39.31 1261.36,-32.76"/>
</g>
<!-- [root] tls_private_key.key_pair (expand) -->
<g id="node17" class="node">
<title>[root] tls_private_key.key_pair (expand)</title>
<polygon fill="none" stroke="black" points="1881.5,-108 1728.5,-108 1728.5,-72 1881.5,-72 1881.5,-108"/>
<text text-anchor="middle" x="1805" y="-86.3" font-family="Times New Roman,serif" font-size="14.00">tls_private_key.key_pair</text>
</g>
<!-- [root] aws_key_pair.key_pair (expand)&#45;&gt;[root] tls_private_key.key_pair (expand) -->
<g id="edge16" class="edge">
<title>[root] aws_key_pair.key_pair (expand)&#45;&gt;[root] tls_private_key.key_pair (expand)</title>
<path fill="none" stroke="black" d="M1436.48,-149.36C1514.01,-137.08 1636.12,-117.75 1718.3,-104.73"/>
<polygon fill="black" stroke="black" points="1719.04,-108.16 1728.37,-103.14 1717.95,-101.24 1719.04,-108.16"/>
</g>
<!-- [root] aws_route_table.public (expand) -->
<g id="node6" class="node">
<title>[root] aws_route_table.public (expand)</title>
<polygon fill="none" stroke="black" points="232,-252 86,-252 86,-216 232,-216 232,-252"/>
<text text-anchor="middle" x="159" y="-230.3" font-family="Times New Roman,serif" font-size="14.00">aws_route_table.public</text>
</g>
<!-- [root] aws_route_table.public (expand)&#45;&gt;[root] aws_internet_gateway.gw (expand) -->
<g id="edge17" class="edge">
<title>[root] aws_route_table.public (expand)&#45;&gt;[root] aws_internet_gateway.gw (expand)</title>
<path fill="none" stroke="black" d="M152.08,-215.7C148.93,-207.81 145.12,-198.3 141.62,-189.55"/>
<polygon fill="black" stroke="black" points="144.81,-188.09 137.84,-180.1 138.31,-190.69 144.81,-188.09"/>
</g>
<!-- [root] aws_route_table_association.public (expand) -->
<g id="node7" class="node">
<title>[root] aws_route_table_association.public (expand)</title>
<polygon fill="none" stroke="black" points="397,-324 181,-324 181,-288 397,-288 397,-324"/>
<text text-anchor="middle" x="289" y="-302.3" font-family="Times New Roman,serif" font-size="14.00">aws_route_table_association.public</text>
</g>
<!-- [root] aws_route_table_association.public (expand)&#45;&gt;[root] aws_route_table.public (expand) -->
<g id="edge18" class="edge">
<title>[root] aws_route_table_association.public (expand)&#45;&gt;[root] aws_route_table.public (expand)</title>
<path fill="none" stroke="black" d="M257.2,-287.88C239.89,-278.55 218.28,-266.92 199.74,-256.94"/>
<polygon fill="black" stroke="black" points="201.39,-253.85 190.92,-252.19 198.07,-260.01 201.39,-253.85"/>
</g>
<!-- [root] aws_route_table_association.public (expand)&#45;&gt;[root] aws_subnet.public (expand) -->
<g id="edge19" class="edge">
<title>[root] aws_route_table_association.public (expand)&#45;&gt;[root] aws_subnet.public (expand)</title>
<path fill="none" stroke="black" d="M289,-287.87C289,-263.67 289,-219.21 289,-190.39"/>
<polygon fill="black" stroke="black" points="292.5,-190.19 289,-180.19 285.5,-190.19 292.5,-190.19"/>
</g>
<!-- [root] aws_security_group.aws_sg (expand)&#45;&gt;[root] aws_vpc.vpc (expand) -->
<g id="edge20" class="edge">
<title>[root] aws_security_group.aws_sg (expand)&#45;&gt;[root] aws_vpc.vpc (expand)</title>
<path fill="none" stroke="black" d="M415.15,-143.88C392.22,-134.26 363.42,-122.19 339.13,-112.01"/>
<polygon fill="black" stroke="black" points="340.3,-108.71 329.72,-108.07 337.59,-115.16 340.3,-108.71"/>
</g>
<!-- [root] aws_subnet.private (expand) -->
<g id="node9" class="node">
<title>[root] aws_subnet.private (expand)</title>
<polygon fill="none" stroke="black" points="124,-324 0,-324 0,-288 124,-288 124,-324"/>
<text text-anchor="middle" x="62" y="-302.3" font-family="Times New Roman,serif" font-size="14.00">aws_subnet.private</text>
</g>
<!-- [root] aws_subnet.private (expand)&#45;&gt;[root] aws_vpc.vpc (expand) -->
<g id="edge21" class="edge">
<title>[root] aws_subnet.private (expand)&#45;&gt;[root] aws_vpc.vpc (expand)</title>
<path fill="none" stroke="black" d="M52.5,-287.73C36.25,-255.59 8.01,-186.06 42,-144 65.52,-114.9 167.41,-101.05 232.75,-95.04"/>
<polygon fill="black" stroke="black" points="233.26,-98.51 242.91,-94.15 232.64,-91.54 233.26,-98.51"/>
</g>
<!-- [root] aws_subnet.public (expand)&#45;&gt;[root] aws_vpc.vpc (expand) -->
<g id="edge22" class="edge">
<title>[root] aws_subnet.public (expand)&#45;&gt;[root] aws_vpc.vpc (expand)</title>
<path fill="none" stroke="black" d="M289,-143.7C289,-135.98 289,-126.71 289,-118.11"/>
<polygon fill="black" stroke="black" points="292.5,-118.1 289,-108.1 285.5,-118.1 292.5,-118.1"/>
</g>
<!-- [root] aws_vpc.vpc (expand)&#45;&gt;[root] provider[&quot;registry.terraform.io/hashicorp/aws&quot;] -->
<g id="edge23" class="edge">
<title>[root] aws_vpc.vpc (expand)&#45;&gt;[root] provider[&quot;registry.terraform.io/hashicorp/aws&quot;]</title>
<path fill="none" stroke="black" d="M335.11,-85.46C470.19,-75.08 868.34,-44.48 1073.94,-28.69"/>
<polygon fill="black" stroke="black" points="1074.49,-32.15 1084.19,-27.9 1073.95,-25.18 1074.49,-32.15"/>
</g>
<!-- [root] data.aws_ami.amzn2&#45;hvm (expand)&#45;&gt;[root] provider[&quot;registry.terraform.io/hashicorp/aws&quot;] -->
<g id="edge24" class="edge">
<title>[root] data.aws_ami.amzn2&#45;hvm (expand)&#45;&gt;[root] provider[&quot;registry.terraform.io/hashicorp/aws&quot;]</title>
<path fill="none" stroke="black" d="M1147.3,-71.7C1156.12,-62.88 1166.97,-52.03 1176.53,-42.47"/>
<polygon fill="black" stroke="black" points="1179.26,-44.69 1183.86,-35.14 1174.31,-39.74 1179.26,-44.69"/>
</g>
<!-- [root] local_file.ssh_key (expand) -->
<g id="node13" class="node">
<title>[root] local_file.ssh_key (expand)</title>
<polygon fill="none" stroke="black" points="1407,-324 1291,-324 1291,-288 1407,-288 1407,-324"/>
<text text-anchor="middle" x="1349" y="-302.3" font-family="Times New Roman,serif" font-size="14.00">local_file.ssh_key</text>
</g>
<!-- [root] local_file.ssh_key (expand)&#45;&gt;[root] aws_key_pair.key_pair (expand) -->
<g id="edge25" class="edge">
<title>[root] local_file.ssh_key (expand)&#45;&gt;[root] aws_key_pair.key_pair (expand)</title>
<path fill="none" stroke="black" d="M1336.27,-287.85C1329.71,-277.92 1322.39,-264.88 1319,-252 1314.92,-236.53 1313.57,-231.05 1319,-216 1322.75,-205.6 1329.54,-195.8 1336.67,-187.52"/>
<polygon fill="black" stroke="black" points="1339.32,-189.81 1343.53,-180.08 1334.17,-185.06 1339.32,-189.81"/>
</g>
<!-- [root] provider[&quot;registry.terraform.io/hashicorp/local&quot;] -->
<g id="node15" class="node">
<title>[root] provider[&quot;registry.terraform.io/hashicorp/local&quot;]</title>
<polygon fill="none" stroke="black" points="1589,-252 1327.92,-234 1589,-216 1850.08,-234 1589,-252"/>
<text text-anchor="middle" x="1589" y="-230.3" font-family="Times New Roman,serif" font-size="14.00">provider[&quot;registry.terraform.io/hashicorp/local&quot;]</text>
</g>
<!-- [root] local_file.ssh_key (expand)&#45;&gt;[root] provider[&quot;registry.terraform.io/hashicorp/local&quot;] -->
<g id="edge26" class="edge">
<title>[root] local_file.ssh_key (expand)&#45;&gt;[root] provider[&quot;registry.terraform.io/hashicorp/local&quot;]</title>
<path fill="none" stroke="black" d="M1407.1,-288.05C1444.92,-277.02 1494.04,-262.7 1531.7,-251.71"/>
<polygon fill="black" stroke="black" points="1532.89,-255.01 1541.51,-248.85 1530.93,-248.29 1532.89,-255.01"/>
</g>
<!-- [root] provider[&quot;registry.terraform.io/hashicorp/tls&quot;] -->
<g id="node16" class="node">
<title>[root] provider[&quot;registry.terraform.io/hashicorp/tls&quot;]</title>
<polygon fill="none" stroke="black" points="1805,-36 1555.82,-18 1805,0 2054.18,-18 1805,-36"/>
<text text-anchor="middle" x="1805" y="-14.3" font-family="Times New Roman,serif" font-size="14.00">provider[&quot;registry.terraform.io/hashicorp/tls&quot;]</text>
</g>
<!-- [root] tls_private_key.key_pair (expand)&#45;&gt;[root] provider[&quot;registry.terraform.io/hashicorp/tls&quot;] -->
<g id="edge35" class="edge">
<title>[root] tls_private_key.key_pair (expand)&#45;&gt;[root] provider[&quot;registry.terraform.io/hashicorp/tls&quot;]</title>
<path fill="none" stroke="black" d="M1805,-71.7C1805,-63.98 1805,-54.71 1805,-46.11"/>
<polygon fill="black" stroke="black" points="1808.5,-46.1 1805,-36.1 1801.5,-46.1 1808.5,-46.1"/>
</g>
<!-- [root] provider[&quot;registry.terraform.io/hashicorp/aws&quot;] (close) -->
<g id="node24" class="node">
<title>[root] provider[&quot;registry.terraform.io/hashicorp/aws&quot;] (close)</title>
<ellipse fill="none" stroke="black" cx="601" cy="-378" rx="232.86" ry="18"/>
<text text-anchor="middle" x="601" y="-374.3" font-family="Times New Roman,serif" font-size="14.00">[root] provider[&quot;registry.terraform.io/hashicorp/aws&quot;] (close)</text>
</g>
<!-- [root] provider[&quot;registry.terraform.io/hashicorp/aws&quot;] (close)&#45;&gt;[root] aws_eip_association.inst_eip (expand) -->
<g id="edge27" class="edge">
<title>[root] provider[&quot;registry.terraform.io/hashicorp/aws&quot;] (close)&#45;&gt;[root] aws_eip_association.inst_eip (expand)</title>
<path fill="none" stroke="black" d="M665.59,-360.68C705.94,-350.48 758.11,-337.3 800.65,-326.55"/>
<polygon fill="black" stroke="black" points="801.57,-329.93 810.4,-324.08 799.85,-323.14 801.57,-329.93"/>
</g>
<!-- [root] provider[&quot;registry.terraform.io/hashicorp/aws&quot;] (close)&#45;&gt;[root] aws_route_table_association.public (expand) -->
<g id="edge28" class="edge">
<title>[root] provider[&quot;registry.terraform.io/hashicorp/aws&quot;] (close)&#45;&gt;[root] aws_route_table_association.public (expand)</title>
<path fill="none" stroke="black" d="M529.03,-360.85C483.07,-350.54 423.23,-337.12 374.8,-326.25"/>
<polygon fill="black" stroke="black" points="375.49,-322.82 364.96,-324.04 373.95,-329.65 375.49,-322.82"/>
</g>
<!-- [root] provider[&quot;registry.terraform.io/hashicorp/aws&quot;] (close)&#45;&gt;[root] aws_subnet.private (expand) -->
<g id="edge29" class="edge">
<title>[root] provider[&quot;registry.terraform.io/hashicorp/aws&quot;] (close)&#45;&gt;[root] aws_subnet.private (expand)</title>
<path fill="none" stroke="black" d="M477.43,-362.74C391.65,-352.6 274.76,-338.29 172,-324 159.77,-322.3 146.79,-320.39 134.19,-318.48"/>
<polygon fill="black" stroke="black" points="134.61,-315 124.2,-316.95 133.55,-321.92 134.61,-315"/>
</g>
<!-- [root] provider[&quot;registry.terraform.io/hashicorp/local&quot;] (close) -->
<g id="node25" class="node">
<title>[root] provider[&quot;registry.terraform.io/hashicorp/local&quot;] (close)</title>
<ellipse fill="none" stroke="black" cx="1349" cy="-378" rx="235.06" ry="18"/>
<text text-anchor="middle" x="1349" y="-374.3" font-family="Times New Roman,serif" font-size="14.00">[root] provider[&quot;registry.terraform.io/hashicorp/local&quot;] (close)</text>
</g>
<!-- [root] provider[&quot;registry.terraform.io/hashicorp/local&quot;] (close)&#45;&gt;[root] local_file.ssh_key (expand) -->
<g id="edge30" class="edge">
<title>[root] provider[&quot;registry.terraform.io/hashicorp/local&quot;] (close)&#45;&gt;[root] local_file.ssh_key (expand)</title>
<path fill="none" stroke="black" d="M1349,-359.7C1349,-351.98 1349,-342.71 1349,-334.11"/>
<polygon fill="black" stroke="black" points="1352.5,-334.1 1349,-324.1 1345.5,-334.1 1352.5,-334.1"/>
</g>
<!-- [root] provider[&quot;registry.terraform.io/hashicorp/tls&quot;] (close) -->
<g id="node26" class="node">
<title>[root] provider[&quot;registry.terraform.io/hashicorp/tls&quot;] (close)</title>
<ellipse fill="none" stroke="black" cx="1854" cy="-378" rx="226.66" ry="18"/>
<text text-anchor="middle" x="1854" y="-374.3" font-family="Times New Roman,serif" font-size="14.00">[root] provider[&quot;registry.terraform.io/hashicorp/tls&quot;] (close)</text>
</g>
<!-- [root] provider[&quot;registry.terraform.io/hashicorp/tls&quot;] (close)&#45;&gt;[root] tls_private_key.key_pair (expand) -->
<g id="edge31" class="edge">
<title>[root] provider[&quot;registry.terraform.io/hashicorp/tls&quot;] (close)&#45;&gt;[root] tls_private_key.key_pair (expand)</title>
<path fill="none" stroke="black" d="M1857.12,-359.85C1861.96,-330.18 1869.65,-267.48 1859,-216 1851.56,-180.03 1833.26,-141.68 1820.02,-117.08"/>
<polygon fill="black" stroke="black" points="1822.94,-115.13 1815.06,-108.05 1816.81,-118.5 1822.94,-115.13"/>
</g>
<!-- [root] root -->
<g id="node27" class="node">
<title>[root] root</title>
<ellipse fill="none" stroke="black" cx="1349" cy="-450" rx="49.29" ry="18"/>
<text text-anchor="middle" x="1349" y="-446.3" font-family="Times New Roman,serif" font-size="14.00">[root] root</text>
</g>
<!-- [root] root&#45;&gt;[root] provider[&quot;registry.terraform.io/hashicorp/aws&quot;] (close) -->
<g id="edge32" class="edge">
<title>[root] root&#45;&gt;[root] provider[&quot;registry.terraform.io/hashicorp/aws&quot;] (close)</title>
<path fill="none" stroke="black" d="M1301.64,-444.57C1193.48,-434.45 924.45,-409.27 752.99,-393.22"/>
<polygon fill="black" stroke="black" points="753.15,-389.72 742.86,-392.28 752.49,-396.69 753.15,-389.72"/>
</g>
<!-- [root] root&#45;&gt;[root] provider[&quot;registry.terraform.io/hashicorp/local&quot;] (close) -->
<g id="edge33" class="edge">
<title>[root] root&#45;&gt;[root] provider[&quot;registry.terraform.io/hashicorp/local&quot;] (close)</title>
<path fill="none" stroke="black" d="M1349,-431.7C1349,-423.98 1349,-414.71 1349,-406.11"/>
<polygon fill="black" stroke="black" points="1352.5,-406.1 1349,-396.1 1345.5,-406.1 1352.5,-406.1"/>
</g>
<!-- [root] root&#45;&gt;[root] provider[&quot;registry.terraform.io/hashicorp/tls&quot;] (close) -->
<g id="edge34" class="edge">
<title>[root] root&#45;&gt;[root] provider[&quot;registry.terraform.io/hashicorp/tls&quot;] (close)</title>
<path fill="none" stroke="black" d="M1394.26,-442.73C1470.62,-432.14 1627.36,-410.42 1736.48,-395.29"/>
<polygon fill="black" stroke="black" points="1737.13,-398.73 1746.55,-393.89 1736.17,-391.8 1737.13,-398.73"/>
</g>
</g>
</svg>
